<svg xmlns="http://www.w3.org/2000/svg" viewBox="0 0 128 128"><defs><style>.cls-1{isolation:isolate;}.cls-2{mix-blend-mode:darken;}.cls-3{fill:#f2a78c;}.cls-4{fill:#f4dd7d;}.cls-5{fill:#4d5db1;opacity:0.06;mix-blend-mode:multiply;}.cls-6{fill:none;stroke:#fff;stroke-linecap:round;stroke-linejoin:round;stroke-width:2px;}</style></defs><title>striped-planet</title><g class="cls-1"><g id="icons" class="cls-2"><circle class="cls-3" cx="64" cy="64" r="56"/><path class="cls-4" d="M100.26,87.86c-9.07.07-9.07-.51-18.13-.51S73.06,88.72,64,88.72s-9.07-1.59-18.13-1.59-9.06.18-18.13.18c-7.72,0-9-.69-14.76-.22a55.84,55.84,0,0,0,3.67,6.81c6.85.47,8,0,16.86,0,10.17,0,10.17.28,20.34.28s10.17-.59,20.33-.59,10.17-.27,20.33-.27c9,0,10,.69,17.05.24a55.89,55.89,0,0,0,2.83-5.12C109,87.8,107.76,87.81,100.26,87.86Z"/><path class="cls-4" d="M108.41,98.1c-6.3-.41-7.44-.19-15.7-.07-9.57.13-9.57-.17-19.13-.17s-9.57.64-19.13.64-9.57,0-19.13,0c-8.43,0-9.48-1.19-16.14-1A56.29,56.29,0,0,0,23.83,103c5.06-.12,6.45-1.33,13.67-1.33,8.84,0,8.84.33,17.69.33s8.84.36,17.68.36,8.84.44,17.68.44c7.52,0,8.68-.1,14.28-.49Q106.72,100.3,108.41,98.1Z"/><path class="cls-4" d="M82.61,107.72c-9.3.27-9.3.87-18.61.87s-9.31-.37-18.61-.37c-8.45,0-9.26-.6-16.29-.44q1.55,1.24,3.19,2.37c6.07.05,7-.63,14.56-.63,8.58,0,8.58.69,17.16.69s8.58.42,17.16.42c8,0,8.53-.76,15.44-1.11.91-.65,1.8-1.32,2.66-2C91.91,107.23,91.22,107.47,82.61,107.72Z"/><path class="cls-4" d="M55,114.57c-8.5,0-9.58-3.46-16.6-.79a56,56,0,0,0,51.1.1c-6.9-2.77-7.93-.79-16.42.26C64.05,115.25,64,114.57,55,114.57Z"/><path class="cls-4" d="M102.86,78.29c-9.71-.21-9.71-.18-19.43-.18s-9.72.73-19.43.73-9.72-.3-19.43-.3S34.86,78,25.15,78c-8.09,0-9.44.19-15.27.45.09.35.2.7.3,1.05,6,.05,7.25-.42,15.37-.42,9.62,0,9.62,1.36,19.23,1.36s9.62-.67,19.23-.67,9.61.86,19.23.86,9.61-1.17,19.22-1.17c8,0,9.37.79,15.12.87.15-.49.28-1,.42-1.47C112.27,78.58,110.89,78.47,102.86,78.29Z"/><path class="cls-4" d="M55,14c9,0,9-.47,18.08-.47,8.37,0,9,.69,16.21.47a55.66,55.66,0,0,0-5.8-2.55c-8.35-.08-9.34.59-19.45.59-10.87,0-11.18-.06-21.45.19q-1.54.64-3,1.36C46,13.93,46.9,14,55,14Z"/><path class="cls-4" d="M24.23,24.58c8.17.61,9.06-.54,18.72-.54,10.53,0,10.53.53,21.06.53s10.53-.77,21.06-.77c9.61,0,10.54,1.34,18.57.64A56.26,56.26,0,0,0,94.9,17.3c-5.28-.24-6.51.41-13.72.41-8.58,0-8.58.65-17.16.65s-8.58-.84-17.16-.84c-7.77,0-8.52.45-15,.62A56.28,56.28,0,0,0,24.23,24.58Z"/><path class="cls-4" d="M103.5,53.72c-9.87,0-9.87-.17-19.75-.17S73.88,55.1,64,55.1s-9.87-1.35-19.74-1.35-9.87-.44-19.74-.44c-8.12,0-9.69-.8-15.43-.38A56.22,56.22,0,0,0,8,63c6,.08,7.55-2,15.89-2,10,0,10,1.29,20.05,1.29s10,.29,20.05.29,10,.13,20.05.13,10-1,20-1c8.43,0,9.73.41,15.82-.26a56.09,56.09,0,0,0-1-8.31C113.18,52.8,111.64,53.72,103.5,53.72Z"/><path class="cls-4" d="M103.91,70.46c-10,.17-10,0-20,0s-10,.16-19.95.16S54,69.41,44,69.41s-10,.75-19.94.75c-8.33,0-9.7.08-15.73.26.18,1.53.41,3.05.7,4.55,5.83-.11,7.28-1.05,15.45-1.05,9.87,0,9.87-.29,19.75-.29S54.15,75,64,75s9.87-1.74,19.74-1.74,9.87,1.84,19.74,1.84c8.1,0,9.63.42,15.36.21q.54-2.64.83-5.37C113.63,69.72,112.26,70.31,103.91,70.46Z"/><path class="cls-4" d="M82.75,45c-9.37,0-9.37-.74-18.75-.74S54.63,45,45.26,45s-9.37-1.07-18.74-1.07c-7.83,0-9.14-.09-14.82.07q-.46,1.2-.86,2.42c5.87.25,7.17.42,15.17.42H45c9.5,0,9.5-1.16,19-1.16s9.5.94,19,.94,9.5-1,19-1c7.82,0,9.2-.14,14.73-.37a55.81,55.81,0,0,0-6.87-13.29c-6.5-.67-7.69.14-16.25.14-9.88,0-9.88.57-19.76.57s-9.88-.57-19.76-.57-9.88.31-19.76.31c-8.69,0-9.74-.83-16.52-.09a55.87,55.87,0,0,0-5.4,9.82c5.59.87,6.9,0,14.67,0,9.23,0,9.23-.31,18.46-.31s9.23.87,18.46.87,9.23.18,18.45.18,9.22-.21,18.45-.21a51,51,0,0,1,8.15.64c-1.87.14-4.07.26-7.57.26C92.12,43.6,92.12,45,82.75,45Z"/><path class="cls-5" d="M94.78,17.22A56,56,0,0,1,17.22,94.78,56,56,0,1,0,94.78,17.22Z"/><path class="cls-5" d="M99.39,20.61A56,56,0,0,1,20.61,99.39,56,56,0,1,0,99.39,20.61Z"/><path class="cls-6" d="M27.51,28.39A50.28,50.28,0,0,0,20.09,38"/><path class="cls-6" d="M51,14.68a50.53,50.53,0,0,0-11,4.27"/></g></g></svg>