<?xml version="1.0" encoding="UTF-8"?>
<svg xmlns="http://www.w3.org/2000/svg" xmlns:xlink="http://www.w3.org/1999/xlink" viewBox="0 0 48 48" version="1.1" width="96px" height="96px">
<g id="surface1">
<path style=" fill:#FFC107;" d="M 47 19 L 43.300781 19 C 43.199219 18.898438 43.199219 18.898438 43.101563 18.800781 C 44 18.101563 44.601563 17 44.601563 15.800781 C 44.601563 13.699219 42.898438 12 40.800781 12 L 33.800781 12 L 33.800781 22.601563 L 30.5 12.699219 L 30.199219 12 L 24.601563 12 L 24.398438 12.699219 L 23.601563 15.199219 L 23.601563 12 L 9.101563 12 C 7.199219 12 5.800781 13.5 5.800781 15.398438 C 5.800781 16.300781 6.101563 16.699219 6.300781 17 C 6.5 17.199219 7.300781 18.199219 7.800781 18.898438 L 0 18.898438 L 0 22.898438 L 9.800781 22.898438 C 11.699219 22.898438 13.199219 21.398438 13.199219 19.5 C 13.199219 18.601563 12.898438 18.199219 12.699219 17.898438 L 11.199219 15.898438 L 14.699219 15.898438 L 14.699219 22.898438 L 19.300781 22.898438 L 19.300781 15.898438 L 23.300781 15.898438 L 21.5 21.601563 L 21 23 L 25.601563 23 L 25.800781 22.300781 L 26.300781 21 L 28.699219 21 L 29.199219 22.300781 L 29.398438 23 L 38.398438 23 L 38.398438 20.898438 C 39 21.5 39.601563 22 40 22.398438 C 40.199219 22.5 40.601563 23 41.398438 23 L 48 23 L 48 19 Z M 15.5 26.300781 L 12.5 35.300781 L 12.300781 36 L 9.199219 36 L 9 35.300781 L 8 32.601563 L 7.101563 35.300781 L 6.800781 36 L 3.601563 36 L 3.398438 35.300781 L 0.398438 26.300781 L 0 25 L 4.699219 25 L 4.898438 25.699219 L 5.199219 26.800781 L 5.601563 25.699219 L 5.898438 25 L 10.101563 25 L 10.300781 25.699219 L 10.699219 26.800781 L 11 25.699219 L 11.199219 25 L 16 25 Z M 41.300781 25 C 39.398438 25 37.898438 26.5 37.898438 28.398438 C 37.898438 29.300781 38.199219 29.699219 38.398438 30 C 38.601563 30.199219 39.398438 31.199219 40 31.898438 L 35.5 31.898438 C 35.5 31.898438 35.5 31.898438 35.398438 31.898438 C 35.398438 31.898438 35.300781 31.800781 35.300781 31.800781 C 36.199219 31.101563 36.800781 30 36.800781 28.800781 C 36.800781 26.699219 35.101563 25 33 25 L 26 25 L 26 36 L 25.601563 34.699219 L 22.601563 25.699219 L 22.398438 25 L 16.800781 25 L 16.601563 25.699219 L 13.699219 34.699219 L 13.199219 36 L 17.699219 36 L 17.898438 35.300781 L 18.398438 34 L 20.800781 34 L 21.300781 35.300781 L 21.5 36 L 30.699219 36 L 30.699219 33.898438 C 31.300781 34.5 31.898438 35 32.398438 35.398438 C 32.800781 35.800781 33.300781 36 33.898438 36 L 42.199219 36 C 44.101563 36 45.601563 34.5 45.601563 32.601563 C 45.601563 31.699219 45.300781 31.300781 45.101563 31 L 43.601563 29 L 48 29 L 48 25 Z "/>
<path style=" " d="M 22.5 13 C 22.5 13 9.898438 13 9 13 C 7.699219 13 6.699219 14 6.699219 15.398438 C 6.699219 16 6.898438 16.199219 7 16.398438 C 7.300781 16.800781 9.101563 19 9.101563 19 C 9.101563 19.101563 9.199219 19.199219 9.199219 19.300781 C 9.300781 19.699219 9 20 8.601563 20 C 8.601563 20 1 20 1 20 L 1 22 C 1 22 9.101563 22 9.800781 22 C 11.101563 22 12.199219 21 12.199219 19.601563 C 12.199219 19 12 18.800781 11.898438 18.601563 L 10 16 C 10 15.898438 9.898438 15.800781 9.898438 15.699219 C 9.898438 15.300781 10.199219 15 10.601563 15 C 10.601563 15 15.800781 15 15.800781 15 L 15.800781 22 L 18.398438 22 L 18.398438 15 L 22.699219 15 L 22.699219 13 Z M 29.5 13 L 25.300781 13 L 22.398438 22 L 24.898438 22 L 25.601563 20 L 29.398438 20 L 30.101563 22 L 32.601563 22 Z M 26.199219 18 L 27.398438 14.398438 L 28.601563 18 Z M 43.300781 20 C 42.898438 20 42.699219 19.800781 42.5 19.601563 C 42 19 41.398438 18.5 41.398438 18.5 C 42.601563 18.199219 43.5 17.101563 43.5 15.800781 C 43.5 14.199219 42.199219 13 40.699219 13 L 34.699219 13 L 34.699219 22 L 37.398438 22 L 37.398438 18.601563 C 37.398438 18.601563 39.699219 20.800781 40.699219 21.699219 C 40.800781 21.800781 41.101563 22 41.5 22 C 41.800781 22 47 22 47 22 L 47 20 Z M 37.398438 15 L 40 15 C 40.601563 15 41.101563 15.398438 41.101563 16 C 41.101563 16.601563 40.601563 17 40 17 L 37.398438 17 Z M 12 26 L 10.699219 29.898438 L 9.398438 26 L 6.601563 26 L 5.199219 29.898438 L 3.898438 26 L 1.398438 26 L 4.398438 35 L 6.101563 35 L 8 29.5 L 9.898438 35 L 11.601563 35 L 14.601563 26 Z M 42.699219 28 C 42.699219 28 47 28 47 28 L 47 26 C 47 26 42.199219 26 41.300781 26 C 40 26 38.898438 27 38.898438 28.398438 C 38.898438 29 39.101563 29.199219 39.199219 29.398438 C 39.5 29.699219 41.398438 31.898438 41.398438 31.898438 C 41.398438 32 41.5 32.101563 41.5 32.199219 C 41.5 32.601563 41.199219 32.898438 40.898438 32.898438 C 40.898438 32.898438 35.699219 32.898438 35.601563 32.898438 C 35.199219 32.898438 35 32.699219 34.800781 32.5 C 34.300781 31.898438 33.800781 31.398438 33.800781 31.398438 C 35 31.101563 35.898438 30 35.898438 28.699219 C 35.898438 27.101563 34.601563 25.898438 33.101563 25.898438 L 27 25.898438 L 27 34.898438 L 29.699219 34.898438 L 29.699219 31.5 C 29.699219 31.5 32 33.699219 33 34.601563 C 33.101563 34.699219 33.398438 34.898438 33.800781 34.898438 C 34.101563 34.898438 41.601563 34.898438 42.101563 34.898438 C 43.398438 34.898438 44.5 34 44.5 32.5 C 44.5 31.898438 44.300781 31.699219 44.199219 31.5 L 42.199219 29 C 42.199219 28.898438 42.101563 28.800781 42.101563 28.699219 C 42.101563 28.300781 42.398438 28 42.699219 28 Z M 32.300781 30 L 29.699219 30 L 29.699219 28 L 32.300781 28 C 32.898438 28 33.398438 28.398438 33.398438 29 C 33.398438 29.601563 32.898438 30 32.300781 30 Z M 21.699219 26 L 17.5 26 L 14.601563 35 L 17 35 L 17.699219 33 L 21.5 33 L 22.199219 35 L 24.699219 35 Z M 18.398438 31 L 19.601563 27.398438 L 20.800781 31 Z "/>
</g>
</svg>
