<svg xmlns="http://www.w3.org/2000/svg" width="200" height="200" xmlns:xlink="http://www.w3.org/1999/xlink" version="1.1" x="0px" y="0px" viewBox="0 0 100 125" enable-background="new 0 0 100 100" xml:space="preserve"><g><path d="M79.195,48.16l-2.412-0.658l1.654-0.414c0.223-0.056,0.379-0.255,0.379-0.485v-5.418c0-0.229-0.156-0.429-0.379-0.485   l-1.654-0.414l2.408-0.657c0.424-0.114,0.831-0.541,0.726-1.144c-1.176-6.493-4.529-12.481-9.438-16.935v-2.95   c0.021-0.324-0.117-0.651-0.393-0.861c-11.801-8.968-28.082-8.837-39.705,0.003c-0.249,0.189-0.395,0.483-0.395,0.796v3.016   c-4.909,4.453-8.26,10.439-9.435,16.931c-0.119,0.66,0.426,1.063,0.725,1.144l2.408,0.657l-1.654,0.414   c-0.223,0.056-0.379,0.255-0.379,0.485v5.418c0,0.229,0.156,0.429,0.379,0.485l1.654,0.414l-2.41,0.658   c-0.517,0.14-0.805,0.684-0.722,1.142c0.432,2.385,1.167,4.704,2.158,6.914l-2.056,0.935c-0.357,0.162-0.586,0.518-0.586,0.91   v7.668c0,0.108,0.018,0.217,0.052,0.319l1.701,5.051c0.137,0.406,0.519,0.681,0.948,0.681h3.597c0.429,0,0.811-0.274,0.948-0.681   l1.701-5.051c0.035-0.103,0.052-0.211,0.052-0.319v-0.311l12.542,23c0.23,0.422,0.549,0.518,0.911,0.518h3.215c0.552,0,1-0.447,1-1   v-8.874h7v8.874c0,0.553,0.447,1,1,1h3.248c0.001,0,0.001,0,0.002,0c0.332-0.003,0.681-0.16,0.876-0.521l12.577-23.063   c4.285-4.233,7.314-9.742,8.46-15.94C79.922,49.284,79.997,48.38,79.195,48.16z M57.389,86.936h-1.654V73.539   c4.23-0.78,8.15-2.432,11.565-4.776L57.389,86.936z M43.078,86.936l-9.936-18.222c3.408,2.4,7.357,4.061,11.593,4.841v13.381   H43.078z M27.65,41.061h14.58c-0.624,1.755-0.657,3.818,0,5.668H27.65V41.061z M44.734,51.795v19.702   c-6.104-1.207-11.549-4.358-15.43-9L44.734,51.795z M43.734,43.895c0-3.584,2.916-6.5,6.5-6.5s6.5,2.916,6.5,6.5   s-2.916,6.5-6.5,6.5S43.734,47.479,43.734,43.895z M72.816,46.729H58.238c0.678-1.908,0.645-3.853,0-5.668h14.578V46.729z    M70.019,63.944c-0.004,0.003-0.007,0.008-0.011,0.011c-3.843,3.788-8.771,6.458-14.273,7.548v-21.14   c0.562-0.478,1.061-1.027,1.482-1.635h16.465l4.07,1.111C76.576,55.308,73.841,60.173,70.019,63.944z M77.816,46.213l-3,0.75   v-6.137l3,0.75V46.213z M77.747,37.951l-4.065,1.11H57.217c-0.46-0.663-1.011-1.257-1.636-1.765l13.917-13.917   C73.657,27.29,76.55,32.398,77.747,37.951z M68.479,19.036v2.534L53.84,36.208c-2.356-1.111-4.855-1.11-7.211,0L31.986,21.566   v-2.528C42.814,11.068,57.654,11.074,68.479,19.036z M30.97,23.378l13.917,13.917c-0.625,0.508-1.175,1.103-1.636,1.765H26.785   l-4.064-1.11C23.917,32.398,26.81,27.29,30.97,23.378z M22.65,41.576l3-0.75v6.137l-3-0.75V41.576z M22.712,49.841l4.073-1.112   h12.394l-14.651,6.66C23.731,53.607,23.123,51.749,22.712,49.841z M43.444,48.986c0.21,0.28,0.435,0.548,0.677,0.8L27.497,61.317   c-0.27,0.187-0.43,0.493-0.43,0.821v2.59h-4.999v-6.024L43.444,48.986z M25.647,69.779h-2.16l-1.027-3.051h4.215L25.647,69.779z    M46.734,51.632c2.228,1.012,4.771,1.012,7,0v25.43h-7V51.632z"/><circle cx="50.234" cy="22.009" r="2.126"/><circle cx="50.234" cy="28.344" r="2.126"/><circle cx="44.817" cy="29.314" r="2.126"/><circle cx="57.93" cy="23.179" r="2.126"/><circle cx="55.65" cy="29.314" r="2.126"/><circle cx="42.539" cy="23.179" r="2.126"/></g><text x="0" y="115" fill="#000000" font-size="5px" font-weight="bold" font-family="'Helvetica Neue', Helvetica, Arial-Unicode, Arial, Sans-serif">Created by habione 404</text><text x="0" y="120" fill="#000000" font-size="5px" font-weight="bold" font-family="'Helvetica Neue', Helvetica, Arial-Unicode, Arial, Sans-serif">from the Noun Project</text></svg>